<svg width="39" height="45" viewBox="0 0 39 45" fill="none" xmlns="http://www.w3.org/2000/svg">
<path d="M26.3174 1.00391H4.21289V23.1084H26.7109V37.9648H4.21289V43.999H37.5664V12.2529H26.3174V1.00391ZM27.3174 11.2529H37.7627C37.9758 11.2529 38.1804 11.3376 38.3311 11.4883C38.4817 11.639 38.5664 11.8436 38.5664 12.0566V44.1963L38.5625 44.2754C38.5442 44.4592 38.4628 44.6319 38.3311 44.7637C38.1804 44.9144 37.9758 44.999 37.7627 44.999H4.0166L3.93652 44.9951C3.77895 44.9794 3.6293 44.9178 3.50684 44.8174L3.44824 44.7637C3.31652 44.6319 3.23508 44.4592 3.2168 44.2754L3.21289 44.1963V37.7676C3.21299 37.5547 3.29777 37.3508 3.44824 37.2002C3.57998 37.0685 3.75276 36.9871 3.93652 36.9688L4.0166 36.9648H25.7109V24.1084H4.0166L3.93652 24.1045C3.77897 24.0888 3.6293 24.0271 3.50684 23.9268L3.44824 23.873C3.29762 23.7224 3.21289 23.5177 3.21289 23.3047V0.807617C3.21289 0.594518 3.29756 0.389941 3.44824 0.239258C3.57999 0.107514 3.75275 0.0261607 3.93652 0.0078125L4.0166 0.00390625H26.5137C26.7267 0.00390625 26.9314 0.0886392 27.082 0.239258C27.2327 0.389941 27.3174 0.594518 27.3174 0.807617V11.2529Z" fill="#D3D3D3"/>
<path d="M26.5152 22.5039H0.80349C0.359735 22.5039 0 22.8636 0 23.3074V37.7702C0 38.214 0.359735 38.5737 0.80349 38.5737H26.5152C26.9589 38.5737 27.3187 38.214 27.3187 37.7702V23.3074C27.3187 22.8636 26.9589 22.5039 26.5152 22.5039Z" fill="#66BB6A"/>
<path d="M38.3357 11.4865L27.0869 0.237685C26.9745 0.124369 26.8309 0.0470893 26.6744 0.0156972C26.5179 -0.0156949 26.3557 0.000223462 26.2083 0.0614227C26.0609 0.122622 25.935 0.226329 25.8468 0.359323C25.7586 0.492316 25.712 0.64857 25.7129 0.808163V12.057C25.7129 12.2701 25.7976 12.4745 25.9482 12.6252C26.0989 12.7759 26.3033 12.8605 26.5164 12.8605H37.7653C37.9248 12.8614 38.0811 12.8148 38.2141 12.7266C38.3471 12.6384 38.4508 12.5125 38.512 12.3651C38.5732 12.2178 38.5891 12.0555 38.5577 11.899C38.5263 11.7425 38.449 11.5989 38.3357 11.4865Z" fill="#E0E0E0"/>
<path d="M26.4365 12.8566C26.279 12.8409 26.1293 12.7792 26.0069 12.6789L25.9483 12.6252C25.7976 12.4745 25.7129 12.2699 25.7129 12.0568V0.80863C25.712 0.649075 25.7585 0.492379 25.8467 0.359406C25.9349 0.22649 26.0607 0.122765 26.208 0.0615514C26.3554 0.000351481 26.5184 -0.01574 26.6748 0.0156524C26.8311 0.047074 26.9747 0.124195 27.0869 0.237334L38.3361 11.4865L37.7697 12.0519V12.0558L38.3361 11.4865C38.4495 11.5989 38.5264 11.7431 38.5578 11.8996C38.5891 12.0559 38.5731 12.2181 38.5119 12.3654L38.4582 12.4718C38.397 12.5734 38.3137 12.6606 38.2141 12.7267C38.0812 12.8148 37.9252 12.8614 37.7658 12.8605H26.5166L26.4365 12.8566ZM37.7697 12.0558V12.0519L38.3361 11.4865L37.7697 12.0558ZM26.7129 11.8605H37.2961L26.7129 1.27738V11.8605Z" fill="#D3D3D3"/>
<path d="M19.7503 33.9995C19.457 33.9995 19.227 33.9195 19.0603 33.7595C18.9003 33.5928 18.8203 33.3628 18.8203 33.0695V27.8695C18.8203 27.5695 18.9003 27.3395 19.0603 27.1795C19.2203 27.0195 19.447 26.9395 19.7403 26.9395C20.0403 26.9395 20.267 27.0195 20.4203 27.1795C20.5803 27.3395 20.6603 27.5695 20.6603 27.8695V32.4695H23.1003C23.3536 32.4695 23.547 32.5361 23.6803 32.6695C23.8203 32.7961 23.8903 32.9828 23.8903 33.2295C23.8903 33.4761 23.8203 33.6661 23.6803 33.7995C23.547 33.9328 23.3536 33.9995 23.1003 33.9995H19.7503Z" fill="white"/>
<path d="M10.7323 34.0894C10.4657 34.0894 10.259 34.016 10.1123 33.8694C9.97234 33.7227 9.90234 33.516 9.90234 33.2494V27.6994C9.90234 27.426 9.97901 27.2194 10.1323 27.0794C10.2857 26.9327 10.5023 26.8594 10.7823 26.8594C11.0157 26.8594 11.199 26.906 11.3323 26.9994C11.4723 27.086 11.599 27.2327 11.7123 27.4394L13.8623 31.2994H13.5123L15.6523 27.4394C15.7723 27.2327 15.899 27.086 16.0323 26.9994C16.1723 26.906 16.359 26.8594 16.5923 26.8594C16.859 26.8594 17.0623 26.9327 17.2023 27.0794C17.349 27.2194 17.4223 27.426 17.4223 27.6994V33.2494C17.4223 33.516 17.3523 33.7227 17.2123 33.8694C17.0723 34.016 16.8657 34.0894 16.5923 34.0894C16.3257 34.0894 16.119 34.016 15.9723 33.8694C15.8323 33.7227 15.7623 33.516 15.7623 33.2494V29.8094H15.9723L14.3623 32.6094C14.269 32.756 14.169 32.866 14.0623 32.9394C13.9623 33.0127 13.8257 33.0494 13.6523 33.0494C13.4857 33.0494 13.349 33.0127 13.2423 32.9394C13.1357 32.866 13.039 32.756 12.9523 32.6094L11.3323 29.7994H11.5623V33.2494C11.5623 33.516 11.4923 33.7227 11.3523 33.8694C11.2123 34.016 11.0057 34.0894 10.7323 34.0894Z" fill="white"/>
<path d="M4.60063 33.9992C4.28729 33.9992 4.04729 33.9192 3.88063 33.7592C3.72062 33.5926 3.64062 33.3559 3.64062 33.0492V27.8992C3.64062 27.5926 3.72062 27.3592 3.88063 27.1992C4.04729 27.0326 4.28729 26.9492 4.60063 26.9492H7.99063C8.23063 26.9492 8.41063 27.0092 8.53063 27.1292C8.65063 27.2492 8.71063 27.4226 8.71063 27.6492C8.71063 27.8826 8.65063 28.0626 8.53063 28.1892C8.41063 28.3092 8.23063 28.3692 7.99063 28.3692H5.40062V29.7092H7.77063C8.00396 29.7092 8.18063 29.7692 8.30063 29.8892C8.42729 30.0092 8.49063 30.1859 8.49063 30.4192C8.49063 30.6526 8.42729 30.8292 8.30063 30.9492C8.18063 31.0692 8.00396 31.1292 7.77063 31.1292H5.40062V32.5792H7.99063C8.23063 32.5792 8.41063 32.6426 8.53063 32.7692C8.65063 32.8892 8.71063 33.0626 8.71063 33.2892C8.71063 33.5226 8.65063 33.6992 8.53063 33.8192C8.41063 33.9392 8.23063 33.9992 7.99063 33.9992H4.60063Z" fill="white"/>
</svg>
